<svg version="1.1" 
	id="spikes" 
	xmlns="http://www.w3.org/2000/svg" 
	xmlns:xlink="http://www.w3.org/1999/xlink" 
	viewBox="0 0 1975.5 98" 
	width="1975.5" height="98"
	xml:space="preserve">
	<path id="path1" fill="#FF0000" d="M146.92 49.31L176.05 0L205.98 50.68L235.92 0L266.92 52.49L297.92 0L327.86 50.68L357.79 0L388.17 51.43L418.55 0L448.48 50.68L478.42 0L507.54 49.31L536.67 0L566.61 50.68L596.54 0L627.54 52.49L658.55 0L688.48 50.68L718.42 0L748.48 50.9L778.55 0L808.48 50.68L838.42 0L867.54 49.31L896.67 0L926.61 50.68L956.54 0L987.54 52.49L1018.55 0L1048.48 50.68L1078.42 0L1108.79 51.43L1139.17 0L1169.11 50.68L1199.04 0L1228.17 49.31L1257.3 0L1287.23 50.68L1317.17 0L1348.17 52.49L1379.17 0L1409.11 50.68L1439.04 0L1468.79 50.37L1498.55 0L1528.48 50.68L1558.42 0L1587.54 49.31L1616.67 0L1646.61 50.68L1676.54 0L1707.54 52.49L1738.55 0L1768.48 50.68L1798.42 0L1828.79 51.43L1858.19 1.66L1888.24 52.15L1918.06 1.66L1975.72 98.55L-0.29 98.55L57.92 0L87.86 50.68L117.79 0L146.92 49.31Z"/>
</svg>