<svg version="1.1" 
	id="spikes" 
	xmlns="http://www.w3.org/2000/svg" 
	xmlns:xlink="http://www.w3.org/1999/xlink" 
	viewBox="0 0 2035 200" 
	width="2035" 
	height="200"
	xml:space="preserve">

<path id="path1" fill="#FF0000" d="M299.06 100L358.12 0L417.19 100L418.44 102.11L419.68 100L478.75 0L537.81 99.99L596.87 0L655.94 100L657.81 103.17L659.68 100L718.75 0L777.81 100L778.75 101.58L779.68 100L838.75 0L897.81 99.99L956.87 0L1015.94 100L1017.81 103.17L1019.68 100L1078.75 0L1137.81 100L1139.06 102.11L1140.31 100L1199.37 0L1258.44 99.99L1317.5 0L1376.56 100L1378.44 103.17L1380.31 100L1439.37 0L1498.44 100L1499.06 101.05L1499.68 100L1558.75 0L1617.81 99.99L1676.87 0L1735.94 100L1737.81 103.17L1739.68 100L1798.75 0L1857.81 100L1859.06 102.11L1860.31 100L1918.39 1.66L2036.43 200L0 200L59.06 100L118.12 0L177.19 99.99L236.25 0L295.31 100L297.19 103.17L299.06 100Z"/>
</svg>